<svg xmlns="http://www.w3.org/2000/svg" viewBox="0 0 980 260" role="img" aria-labelledby="flowkit-logo-title">
  <title id="flowkit-logo-title">FlowKit</title>
  <defs>
    <linearGradient id="flowkit-blue" x1="0%" y1="100%" x2="100%" y2="0%">
      <stop offset="0%" stop-color="#2c45f5" />
      <stop offset="55%" stop-color="#2887f0" />
      <stop offset="100%" stop-color="#34b4ff" />
    </linearGradient>
  </defs>

  <g fill="url(#flowkit-blue)">
    <path d="M95 44c34 0 56-6 71-19c6-5 14 0 14 8c0 36-23 63-59 77c-13 5-28 8-45 8H52V95c0-15 5-27 15-36c13-10 31-15 53-15h-25z" />
    <path d="M54 128h79c23 0 38-6 49-17c6-6 14-1 14 8c0 31-20 55-51 68c-12 5-27 8-43 8H42v-24c0-27 19-43 52-43z" />
    <path d="M42 203h53c22 0 36 11 36 29c0 7-1 14-4 22l-8 22H66c-14 0-25-4-33-11c-9-8-13-18-13-30c0-20 8-35 22-47z" transform="translate(20 -20)" />
  </g>

  <g font-family="Aptos, 'Segoe UI', Helvetica, Arial, sans-serif" font-size="166" font-weight="300">
    <text x="250" y="172" fill="#07114f">flow</text>
    <text x="607" y="172" fill="#2d8df6">kit</text>
  </g>
</svg>
